<svg xmlns="http://www.w3.org/2000/svg" version="1.1"
     viewBox="0 0 10500 2873.35"
     class="logo-svg" role="img" aria-hidden="true"
     style="shape-rendering:geometricPrecision;text-rendering:geometricPrecision;fill-rule:evenodd;clip-rule:evenodd">
  <defs>
    <style type="text/css"><![CDATA[
      .logo-svg .ring-stroke { stroke:#F28D46; stroke-width:7.56; stroke-miterlimit:22.9256; }
      .logo-svg .orange      { fill:#ED721D; }
      .logo-svg .orange-nz   { fill:#ED721D; fill-rule:nonzero; }
      .logo-svg .logotype    { fill:#0D68A1; font-family:'DM Sans','Calibri','Carlito',sans-serif; font-weight:700; letter-spacing:-0.03em; }
    ]]></style>
  </defs>
  <path class="orange-nz" d="M2233.32 1388.75c-95.9,-95.91 -228.42,-155.24 -374.8,-155.24 -146.37,0 -278.88,59.33 -374.8,155.24 -95.9,95.9 -155.24,228.42 -155.24,374.8 0,146.37 59.34,278.88 155.24,374.8 95.91,95.91 228.42,155.24 374.8,155.24 146.37,0 278.89,-59.33 374.8,-155.24 95.91,-95.91 155.24,-228.42 155.24,-374.8 0,-146.36 -59.33,-278.88 -155.24,-374.8z"/>
  <path class="orange-nz ring-stroke" d="M1436.68 3.78c395.67,0 753.9,160.39 1013.2,419.69 259.31,259.3 419.69,617.54 419.69,1013.21 0,395.67 -160.38,753.89 -419.69,1013.2 -259.3,259.3 -617.53,419.69 -1013.2,419.69 -395.67,0 -753.91,-160.39 -1013.21,-419.69 -259.3,-259.3 -419.69,-617.53 -419.69,-1013.2 0,-395.67 160.39,-753.91 419.69,-1013.21 259.3,-259.3 617.54,-419.69 1013.21,-419.69zm949.22 483.67c-242.92,-242.92 -578.52,-393.18 -949.22,-393.18 -370.7,0 -706.3,150.26 -949.23,393.18 -242.91,242.92 -393.18,578.53 -393.18,949.23 0,370.7 150.27,706.29 393.18,949.22 242.92,242.92 578.53,393.17 949.23,393.17 370.7,0 706.29,-150.25 949.22,-393.17 242.92,-242.92 393.17,-578.52 393.17,-949.22 0,-370.7 -150.25,-706.3 -393.17,-949.23z"/>
  <path class="orange" d="M1388.18 2177.75c-191.59,-217.58 -208.97,-538.16 -42.05,-775.19 -16.91,-23.25 -30.57,-44.12 -40.94,-62.72 -233.52,-144.56 -538.78,-86.81 -703.36,133.06 -164.58,219.86 -133.95,529.03 70.56,712.35 204.51,183.31 515.16,180.05 715.78,-7.5z"/>
  <path class="orange" d="M1410.14 1325.67c241.82,-247.63 638.58,-252.34 886.23,-10.54 142.72,-223.17 98.77,-517.46 -102.93,-689.18 -201.71,-171.74 -499.22,-168.2 -696.79,8.28 -197.56,176.49 -234.5,471.73 -86.51,691.45z"/>
  <path class="orange" d="M1365.7 631.43c-203.79,-151.75 -486.61,-137.55 -674.18,33.85 -187.58,171.41 -227.14,451.8 -94.32,668.42 174.31,-163.89 426.76,-214.16 650.54,-129.52 -57.73,-198.67 -13.58,-413.05 117.97,-572.74z"/>
  <text class="logotype" x="3473" y="1436.5" font-size="2400" text-anchor="start" dominant-baseline="central">FRUK</text>
</svg>
