<?xml version="1.0" encoding="UTF-8"?>
<!DOCTYPE svg PUBLIC "-//W3C//DTD SVG 1.1//EN" "http://www.w3.org/Graphics/SVG/1.1/DTD/svg11.dtd">
<!-- Creator: CorelDRAW 2021 (64-Bit) -->
<svg xmlns="http://www.w3.org/2000/svg" xml:space="preserve" width="100%" height="100%" version="1.1" preserveAspectRatio="xMidYMid meet" style="shape-rendering:geometricPrecision; text-rendering:geometricPrecision; image-rendering:optimizeQuality; fill-rule:evenodd; clip-rule:evenodd"
viewBox="0 0 6555.91 6555.91"
 xmlns:xlink="http://www.w3.org/1999/xlink"
 xmlns:xodm="http://www.corel.com/coreldraw/odm/2003">
 <defs>
  <style type="text/css">
   <![CDATA[
    .str0 {stroke:#F28D46;stroke-width:8.71;stroke-miterlimit:22.9256}
    .fil1 {fill:#ED721D}
    .fil0 {fill:#ED721D;fill-rule:nonzero}
   ]]>
  </style>
 </defs>
 <g id="Слой_x0020_1">
  <metadata id="CorelCorpID_0Corel-Layer"/>
  <path class="fil0" d="M5097.99 3168.46c-219.11,-219.11 -521.85,-354.65 -856.26,-354.65 -334.41,0 -637.15,135.53 -856.26,354.65 -219.11,219.11 -354.66,521.86 -354.66,856.26 0,334.41 135.54,637.15 354.66,856.26 219.11,219.12 521.85,354.66 856.26,354.66 334.41,0 637.15,-135.53 856.26,-354.66 219.11,-219.11 354.66,-521.85 354.66,-856.26 0,-334.39 -135.54,-637.14 -354.66,-856.26z"/>
  <path class="fil0 str0" d="M3277.97 4.35c903.97,0 1722.36,366.44 2314.77,958.83 592.41,592.41 958.82,1410.83 958.82,2314.78 0,903.95 -366.41,1722.35 -958.82,2314.77 -592.41,592.39 -1410.8,958.82 -2314.77,958.82 -903.95,0 -1722.38,-366.41 -2314.78,-958.82 -592.39,-592.41 -958.83,-1410.8 -958.83,-2314.77 0,-903.95 366.43,-1722.38 958.82,-2314.79 592.42,-592.39 1410.84,-958.82 2314.79,-958.82zm2168.59 1105c-554.98,-554.98 -1321.69,-898.25 -2168.59,-898.25 -846.91,0 -1613.64,343.28 -2168.61,898.25 -554.98,554.98 -898.25,1321.71 -898.25,2168.61 0,846.89 343.28,1613.61 898.25,2168.59 554.98,554.99 1321.71,898.25 2168.61,898.25 846.89,0 1613.61,-343.27 2168.59,-898.25 554.99,-554.98 898.25,-1321.69 898.25,-2168.59 0,-846.91 -343.27,-1613.64 -898.25,-2168.61z"/>
  <path class="fil1" d="M3167.18 4971.04c-437.71,-497.09 -477.43,-1229.49 -96.06,-1771.01 -38.65,-53.1 -69.85,-100.78 -93.55,-143.29 -533.51,-330.25 -1230.9,-198.32 -1606.89,304.01 -375.99,502.31 -306.03,1208.64 161.2,1627.44 467.23,418.8 1176.96,411.36 1635.31,-17.14z"/>
  <path class="fil1" d="M3217.34 3024.36c552.45,-565.73 1458.91,-576.51 2024.67,-24.09 326.07,-509.87 225.66,-1182.18 -235.15,-1574.52 -460.82,-392.35 -1140.53,-384.26 -1591.88,18.93 -451.34,403.21 -535.73,1077.71 -197.63,1579.68z"/>
  <path class="fil1" d="M3115.81 1438.31c-465.6,-346.71 -1111.72,-314.27 -1540.26,77.32 -428.54,391.6 -518.93,1032.19 -215.49,1527.07 398.22,-374.42 974.98,-489.25 1486.24,-295.89 -131.88,-453.9 -31.01,-943.66 269.51,-1308.5z"/>
 </g>
</svg>
