<svg xmlns="http://www.w3.org/2000/svg" version="1.1" xmlns:xlink="http://www.w3.org/1999/xlink" xml:space="preserve" width="512" height="512" preserveAspectRatio="xMidYMid meet" style="shape-rendering:geometricPrecision; text-rendering:geometricPrecision; image-rendering:optimizeQuality; fill-rule:evenodd; clip-rule:evenodd" viewBox="0 0 3191.39 3191.39" xmlns:xodm="http://www.corel.com/coreldraw/odm/2003"><metadata><rdf:RDF xmlns:rdf="http://www.w3.org/1999/02/22-rdf-syntax-ns#" xmlns:dc="http://purl.org/dc/elements/1.1/"><rdf:Description><dc:creator>RealFaviconGenerator</dc:creator><dc:source>https://realfavicongenerator.net</dc:source></rdf:Description></rdf:RDF></metadata><defs>
  <style type="text/css">
   
    .fil0 {fill:#ED721D;fill-rule:nonzero}
   
  </style>
 </defs><g id="Слой_x0020_1">
  <metadata id="CorelCorpID_0Corel-Layer"></metadata>
  <path class="fil0" d="M2440.62 1600.26c-98.66,-98.65 -234.98,-159.68 -385.55,-159.68 -150.57,0 -286.89,61.03 -385.55,159.68 -98.65,98.65 -159.68,234.97 -159.68,385.54 0,150.58 61.03,286.9 159.68,385.56 98.66,98.65 234.98,159.68 385.55,159.68 150.58,0 286.9,-61.03 385.55,-159.68 98.65,-98.65 159.68,-234.98 159.68,-385.56 0,-150.57 -61.02,-286.89 -159.68,-385.54zm-872.29 -160.45c272.43,-242.88 682.23,-247.76 960.36,-11.41 120.71,-230.87 61.24,-514.89 -141.95,-677.96 -203.19,-163.06 -493.35,-159.62 -692.6,8.23 -199.27,167.84 -251.97,453.19 -125.8,681.13zm-114.31 -694.63c-206.79,-131.24 -475.69,-108.52 -657.54,55.54 -181.85,164.06 -232.03,429.21 -122.71,648.37 182.26,-148.9 425.03,-201 652.34,-140.03 -36.7,-197.55 9.56,-401.5 127.9,-563.88zm-1.66 826.07c-181.57,264.09 -170.13,615.61 28.22,867.34 -218.87,178.12 -537.48,159.83 -734.52,-42.16 -197.05,-201.99 -207.44,-520.96 -23.93,-735.35 183.5,-214.39 500.25,-253.34 730.23,-89.83zm143.34 -1571.25c440.62,0 839.54,178.61 1128.31,467.39 288.75,288.75 467.38,687.7 467.38,1128.32 0,440.61 -178.61,839.53 -467.38,1128.31 -288.75,288.75 -687.68,467.38 -1128.31,467.38 -440.61,0 -839.56,-178.62 -1128.32,-467.38 -288.77,-288.76 -467.39,-687.69 -467.39,-1128.31 0,-440.63 178.61,-839.55 467.38,-1128.33 288.77,-288.76 687.71,-467.38 1128.33,-467.38zm1003.55 592.14c-256.81,-256.82 -611.64,-415.68 -1003.55,-415.68 -391.92,0 -746.75,158.86 -1003.57,415.67 -256.81,256.82 -415.67,611.65 -415.67,1003.57 0,391.92 158.86,746.74 415.68,1003.55 256.81,256.81 611.64,415.67 1003.56,415.67 391.91,0 746.74,-158.86 1003.55,-415.67 256.81,-256.82 415.67,-611.64 415.67,-1003.55 0,-391.92 -158.86,-746.75 -415.67,-1003.56z"></path>
 </g></svg>